<svg xmlns="http://www.w3.org/2000/svg" viewBox="0 0 1739.26 656.72">
    <defs>
        <style>
            .cls-1,
            .cls-2 {
                fill: #ed6c1b;
            }

            .cls-1 {
                fill-rule: evenodd;
            }
        </style>
    </defs>
    <title>Fichier 5logo</title>
    <g id="Calque_2" data-name="Calque 2">
        <g id="Calque_1-2" data-name="Calque 1">
            <path class="cls-1"
                d="M99.4,622.75c-6.84-70.53-42.66-93.7-83.73-191.58-15.79-38.45,9-66.85,53.18-90.56,18.94-10.51-2.61,23.19,7.38,46.85C94.15,429.58,102,438,90.42,369.57,78.33,298,34.19,184,80.44,137.68c85.26-85.34,80.38-93.9,166.91,4.22,42.27,47.93-1,134.1-9,188.2C239.93,319.42,257.9,318,269.45,319h0a41.2,41.2,0,0,1,39,40c6.84-13.15,19.52-13.15,35.29-13.15h0c21.07,0,38.42,30,38.42,51-.48,47.39-9.5,85.27-20.55,118.46,7.41-1.06,15.28-1.6,22.68-2.63,8.42-.53,15.76-1.07,23.13-1.07-7.37.54-15.24,1.6-23.13,2.64C250,532.23,151.52,592.76,98.86,644.85c-26.86,26.36-34.76,3.71-4.71-18.4Zm61.6-289,32.12-92.92c4.74-16.84,12.62-32.63,4.21-49a39,39,0,0,0-35.81-22.63A40.21,40.21,0,0,0,124.67,194c-5.78,14.21,0,26.31,4.22,41.05ZM276.3,52.4A15.3,15.3,0,0,0,261,37.12c-34.71,0,13.18,39-45.29-11.56-64.19-56-83.89-19-209,102.12-8.93,8.41-8.93,22.64,0,31.58,8.45,8.93,22.66,8.93,31.62,0l22.12-22.65c122.69-116.84,82.65-113.7,208,5.81l16.87,16.84c9,8.93,23.16,8.93,31.58,0a21.86,21.86,0,0,0,0-31.58C273.69,84.49,276.3,104.51,276.3,52.4Zm-115.82,50a23.38,23.38,0,0,0-23.19,23.17,23,23,0,0,0,23.19,23.16c13.17,0,23.69-10,23.69-23.16,0-12.64-10.52-23.17-23.69-23.17Z" />
            <path class="cls-2" d="M407.26,170.12h56v339h-56Z" />
            <path class="cls-2"
                d="M623.06,226.78q58.41,0,99.73,41.31t41.31,99.73q0,58.43-41.31,99.73t-99.73,41.31q-58.42,0-99.74-41.31T482,367.82q0-58.43,41.31-99.73T623.06,226.78Zm0,225.63q35,0,59.8-24.79t24.78-59.8q0-35-24.78-59.8t-59.8-24.79q-35,0-59.8,24.79t-24.79,59.8q0,35,24.79,59.8T623.06,452.41Z" />
            <path class="cls-2"
                d="M922.16,452.12a81.57,81.57,0,0,0,49-15.81,82.68,82.68,0,0,0,30.05-40.19h60.62q-10,48.83-48.43,80.71-39.18,32.3-90,32.29H782.26V368.21q0-57.94,41-98.92t98.92-41q50.34,0,89,32,38.24,31.62,48.19,79.81h-58.14a82.78,82.78,0,0,0-30.05-40,81.57,81.57,0,0,0-49-15.81q-34.73,0-59.31,24.59t-24.59,59.31q0,34.74,24.59,59.32T922.16,452.12Z" />
            <path class="cls-2"
                d="M1222.22,227q58.42,0,99.73,41.31t41.31,99.73V509.12h-141q-58.42,0-99.73-41.31t-41.31-99.74q0-58.41,41.31-99.73T1222.22,227Zm-84.76,140.79q0,35,24.78,59.8t59.8,24.79q35,0,59.8-24.79t24.79-59.8q0-35-24.79-59.8T1222,283.23q-35,0-59.8,24.79T1137.46,367.82Z" />
            <path class="cls-2"
                d="M1524.16,452.12a81.57,81.57,0,0,0,49-15.81,82.62,82.62,0,0,0,30-40.19h60.62q-10,48.83-48.43,80.71-39.18,32.3-90,32.29H1384.26V368.21q0-57.94,41-98.92t98.92-41q50.34,0,89,32,38.23,31.62,48.19,79.81h-58.14a82.72,82.72,0,0,0-30-40,81.57,81.57,0,0,0-49-15.81q-34.73,0-59.31,24.59t-24.59,59.31q0,34.74,24.59,59.32T1524.16,452.12Z" />
            <path class="cls-2" d="M1683.26,227.12h56v282h-56Z" />
            <path class="cls-2"
                d="M1711.34,150.53a26.09,26.09,0,0,1,19,7.81,26.8,26.8,0,0,1,0,38,26.93,26.93,0,0,1-46-19,25.66,25.66,0,0,1,7.89-18.95A26.1,26.1,0,0,1,1711.34,150.53Z" />
        </g>
    </g>
</svg>